# xmcd CD database file
#
# Track frame offsets:
#	150
#	20445
#	41550
#	59843
#	80710
#	101513
#
# Disc length: 1625 seconds
#
# Revision: 0
# Processed by: cddbd v1.5.1PL2 Copyright (c) Steve Scherf et al.
# Submitted via: CDex 1.51
#
DISCID=4c065706
DTITLE=猿岩石 - 1986
DYEAR=1999
DGENRE=JPop
TTITLE0=My Revolution
TTITLE1=ガラス越しに消えた夏
TTITLE2=モーニングムーン
TTITLE3=夏の終わりのハーモニー
TTITLE4=BAN BAN BAN (バン バン バン)
TTITLE5=1986年のLOVE SONGS
EXTD=YEAR: 1999
EXTT0=
EXTT1=
EXTT2=
EXTT3=
EXTT4=
EXTT5=
PLAYORDER=
